# xmcd CD database file
#
# Track frame offsets:
#	150
#	22052
#	49392
#
# Disc length: 948 seconds
#
# Revision: 4
# Processed by: cddbd v1.5.1PL0 Copyright (c) Steve Scherf et al.
# Submitted via: CDex 1.51
#
DISCID=2403b203
DTITLE=田村　直美 - Sweet 7days (Single)
DYEAR=1998
DGENRE=Pop
TTITLE0=Sweet 7days
TTITLE1=僕であるために
TTITLE2=Sweet 7days（オリジナルカラオケ）
EXTD=YEAR: 1998
EXTT0=
EXTT1=
EXTT2=
PLAYORDER=
